<?xml version="1.0" encoding="UTF-8" standalone="no"?>
<!DOCTYPE svg PUBLIC "-//W3C//DTD SVG 1.1//EN"
 "http://www.w3.org/Graphics/SVG/1.1/DTD/svg11.dtd">
<!-- Generated by graphviz version 2.36.0 (20140111.2315)
 -->
<!-- Title: terms Pages: 1 -->
<svg width="603pt" height="186pt"
 viewBox="0.00 0.00 603.00 186.00" xmlns="http://www.w3.org/2000/svg" xmlns:xlink="http://www.w3.org/1999/xlink">
<g id="graph0" class="graph" transform="scale(1 1) rotate(0) translate(4 182)">
<title>terms</title>
<polygon fill="white" stroke="none" points="-4,4 -4,-182 599,-182 599,4 -4,4"/>
<g id="clust1" class="cluster"><title>cluster0</title>
<polygon fill="none" stroke="black" points="8,-8 8,-100 587,-100 587,-8 8,-8"/>
<text text-anchor="middle" x="297.5" y="-84.8" font-family="Times,serif" font-size="14.00">NIEM Common Model Format (CMF)</text>
<text text-anchor="middle" x="297.5" y="-69.8" font-family="Times,serif" font-size="14.00">(XML)</text>
</g>
<!-- metamodel -->
<g id="node1" class="node"><title>metamodel</title>
<polygon fill="none" stroke="black" points="339,-178 233,-178 233,-142 339,-142 339,-178"/>
<text text-anchor="middle" x="286" y="-156.3" font-family="Times,serif" font-size="14.00">The Metamodel</text>
</g>
<!-- nmix -->
<g id="node2" class="node"><title>nmix</title>
<polygon fill="none" stroke="black" points="183.25,-54 16.75,-54 16.75,-16 183.25,-16 183.25,-54"/>
<text text-anchor="middle" x="100" y="-38.8" font-family="Times,serif" font-size="14.00">NIEM Model File in XML</text>
<text text-anchor="middle" x="100" y="-23.8" font-family="Times,serif" font-size="14.00">(XML Schema)</text>
</g>
<!-- metamodel&#45;&gt;nmix -->
<g id="edge1" class="edge"><title>metamodel&#45;&gt;nmix</title>
<path fill="none" stroke="black" d="M257.809,-141.788C241.444,-131.693 220.24,-118.442 200.597,-105.642"/>
<polygon fill="black" stroke="black" points="202.281,-102.56 192,-100 198.44,-108.413 202.281,-102.56"/>
<text text-anchor="middle" x="247" y="-112.3" font-family="Times,serif" font-size="14.00">defines</text>
</g>
<!-- nmij -->
<g id="node3" class="node"><title>nmij</title>
<polygon fill="none" stroke="black" points="370.25,-54 201.75,-54 201.75,-16 370.25,-16 370.25,-54"/>
<text text-anchor="middle" x="286" y="-38.8" font-family="Times,serif" font-size="14.00">NIEM Model File in JSON</text>
<text text-anchor="middle" x="286" y="-23.8" font-family="Times,serif" font-size="14.00">(JSON Schema/JSON&#45;LD)</text>
</g>
<!-- metamodel&#45;&gt;nmij -->
<g id="edge2" class="edge"><title>metamodel&#45;&gt;nmij</title>
<path fill="none" stroke="black" d="M286,-141.897C286,-133.154 286,-121.847 286,-109.889"/>
<polygon fill="black" stroke="black" points="289.5,-109.732 286,-99.7317 282.5,-109.732 289.5,-109.732"/>
<text text-anchor="middle" x="306" y="-112.3" font-family="Times,serif" font-size="14.00">defines</text>
</g>
<!-- nmiw -->
<g id="node4" class="node"><title>nmiw</title>
<polygon fill="none" stroke="black" points="579,-54 389,-54 389,-16 579,-16 579,-54"/>
<text text-anchor="middle" x="484" y="-38.8" font-family="Times,serif" font-size="14.00">NIEM Model File in Whatever</text>
<text text-anchor="middle" x="484" y="-23.8" font-family="Times,serif" font-size="14.00">(whatever technology)</text>
</g>
<!-- metamodel&#45;&gt;nmiw -->
<g id="edge3" class="edge"><title>metamodel&#45;&gt;nmiw</title>
<path fill="none" stroke="black" d="M313.531,-141.897C329.512,-131.97 350.812,-118.738 372.929,-104.999"/>
<polygon fill="black" stroke="black" points="374.788,-107.964 381.436,-99.7141 371.095,-102.018 374.788,-107.964"/>
<text text-anchor="middle" x="387" y="-112.3" font-family="Times,serif" font-size="14.00">defines</text>
</g>
</g>
</svg>
