<?xml version="1.0" encoding="UTF-8" standalone="no"?>
<!DOCTYPE svg PUBLIC "-//W3C//DTD SVG 1.1//EN"
 "http://www.w3.org/Graphics/SVG/1.1/DTD/svg11.dtd">
<!-- Generated by graphviz version 2.36.0 (20140111.2315)
 -->
<!-- Title: specs Pages: 1 -->
<svg width="584pt" height="169pt"
 viewBox="0.00 0.00 584.00 169.00" xmlns="http://www.w3.org/2000/svg" xmlns:xlink="http://www.w3.org/1999/xlink">
<g id="graph0" class="graph" transform="scale(1 1) rotate(0) translate(4 165)">
<title>specs</title>
<polygon fill="white" stroke="none" points="-4,4 -4,-165 580,-165 580,4 -4,4"/>
<g id="clust1" class="cluster"><title>cluster0</title>
<polygon fill="none" stroke="black" points="8,-8 8,-83 568,-83 568,-8 8,-8"/>
<text text-anchor="middle" x="288" y="-67.8" font-family="Times,serif" font-size="14.00">NIEM Common Model Format</text>
</g>
<!-- metamodel -->
<g id="node1" class="node"><title>metamodel</title>
<polygon fill="none" stroke="black" points="331,-161 328,-165 307,-165 304,-161 225,-161 225,-125 331,-125 331,-161"/>
<text text-anchor="middle" x="278" y="-139.3" font-family="Times,serif" font-size="14.00">The Metamodel</text>
</g>
<!-- nmix -->
<g id="node2" class="node"><title>nmix</title>
<polygon fill="none" stroke="black" points="178,-52 175,-56 154,-56 151,-52 16,-52 16,-16 178,-16 178,-52"/>
<text text-anchor="middle" x="97" y="-30.3" font-family="Times,serif" font-size="14.00">NIEM Model File (XML)</text>
</g>
<!-- metamodel&#45;&gt;nmix -->
<g id="edge1" class="edge"><title>metamodel&#45;&gt;nmix</title>
<path fill="none" stroke="black" d="M248.919,-124.809C231.736,-114.65 208.959,-101.186 186.284,-87.7811"/>
<polygon fill="black" stroke="black" points="188,-84.7297 177.61,-82.6537 184.438,-90.7555 188,-84.7297"/>
<text text-anchor="middle" x="235" y="-95.3" font-family="Times,serif" font-size="14.00">defines</text>
</g>
<!-- nmij -->
<g id="node3" class="node"><title>nmij</title>
<polygon fill="none" stroke="black" points="360,-52 357,-56 336,-56 333,-52 196,-52 196,-16 360,-16 360,-52"/>
<text text-anchor="middle" x="278" y="-30.3" font-family="Times,serif" font-size="14.00">NIEM Model File (JSON)</text>
</g>
<!-- metamodel&#45;&gt;nmij -->
<g id="edge2" class="edge"><title>metamodel&#45;&gt;nmij</title>
<path fill="none" stroke="black" d="M278,-124.809C278,-115.952 278,-104.582 278,-92.9294"/>
<polygon fill="black" stroke="black" points="281.5,-92.6728 278,-82.6729 274.5,-92.6729 281.5,-92.6728"/>
<text text-anchor="middle" x="298" y="-95.3" font-family="Times,serif" font-size="14.00">defines</text>
</g>
<!-- nmiw -->
<g id="node4" class="node"><title>nmiw</title>
<polygon fill="none" stroke="black" points="560,-52 557,-56 536,-56 533,-52 378,-52 378,-16 560,-16 560,-52"/>
<text text-anchor="middle" x="469" y="-30.3" font-family="Times,serif" font-size="14.00">NIEM Model File (whatever)</text>
</g>
<!-- metamodel&#45;&gt;nmiw -->
<g id="edge3" class="edge"><title>metamodel&#45;&gt;nmiw</title>
<path fill="none" stroke="black" d="M308.687,-124.809C326.863,-114.626 350.97,-101.122 374.954,-87.6856"/>
<polygon fill="black" stroke="black" points="376.76,-90.6858 383.773,-82.7449 373.338,-84.5788 376.76,-90.6858"/>
<text text-anchor="middle" x="387" y="-95.3" font-family="Times,serif" font-size="14.00">defines</text>
</g>
</g>
</svg>
